<svg xmlns="http://www.w3.org/2000/svg" width="153" height="40" viewBox="0 0 153 40">
    <g fill="#491E8C" fill-rule="evenodd">
        <path d="M73.75 7.45a2.222 2.222 0 0 0-1.482-.627c-.699 0-1.285.32-1.748.956l-8.628 12.903-8.524-12.908a2.214 2.214 0 0 0-.799-.693 2.196 2.196 0 0 0-1.019-.258c-.605 0-1.12.213-1.527.634-.404.417-.61.91-.61 1.462v22.416c0 .6.185 1.102.549 1.495.37.4.854.603 1.438.603.61 0 1.105-.203 1.477-.603.364-.393.548-.896.548-1.495v-16.4l6.657 10.336c.197.254.447.468.742.637.307.174.616.252.92.227.326.023.647-.053.954-.227.294-.169.545-.383.757-.656l6.602-10.006v16.09c0 .608.207 1.114.617 1.509.406.39.93.59 1.556.59.631 0 1.151-.207 1.544-.617.391-.406.59-.903.59-1.481V8.92a1.967 1.967 0 0 0-.614-1.472zM97.655 10.907c.6 0 1.102-.184 1.495-.548.4-.37.603-.853.603-1.438 0-.607-.2-1.107-.597-1.489-.395-.38-.9-.57-1.501-.57H84.757c-.58 0-1.08.206-1.486.612a2.03 2.03 0 0 0-.613 1.485v22.38c0 .58.207 1.079.613 1.485.406.406.905.613 1.486.613h12.898c.6 0 1.102-.184 1.495-.549.4-.37.603-.853.603-1.437 0-.552-.199-1.038-.59-1.444-.394-.41-.903-.616-1.508-.616h-10.69v-7.55h9.022c.597 0 1.098-.176 1.491-.525.402-.359.607-.85.607-1.461 0-.582-.2-1.07-.597-1.453-.395-.38-.9-.571-1.501-.571h-9.021v-6.924h10.689zM120.083 19.525c-1.237-.575-2.85-1.081-4.789-1.504-1.882-.435-3.313-.968-4.25-1.586-.888-.584-1.321-1.406-1.321-2.512 0-1.009.434-1.802 1.326-2.424.917-.637 2.184-.962 3.765-.962.992 0 2.051.217 3.144.645 1.09.427 1.95.95 2.573 1.571.281.25.64.378 1.065.378.558 0 1.04-.207 1.434-.617.391-.406.59-.878.59-1.407 0-.662-.324-1.279-.948-1.823-.87-.843-2.017-1.527-3.412-2.036a12.97 12.97 0 0 0-4.446-.76c-1.742 0-3.332.307-4.723.916-1.408.614-2.526 1.504-3.32 2.648-.801 1.147-1.207 2.5-1.207 4.017 0 2.188.728 3.927 2.167 5.17 1.408 1.215 3.432 2.1 6.015 2.627 2.1.459 3.677 1.035 4.69 1.713.966.648 1.448 1.54 1.471 2.718 0 .982-.48 1.779-1.47 2.44-1.018.676-2.285 1.02-3.771 1.02-1.286 0-2.45-.21-3.455-.624-1.01-.416-2.006-1.074-2.964-1.96a1.85 1.85 0 0 0-1.29-.491c-.559 0-1.046.214-1.452.635-.404.418-.61.897-.61 1.427 0 .662.3 1.255.885 1.756 1.285 1.16 2.655 2.009 4.07 2.527 1.414.516 3.059.78 4.89.78 1.693 0 3.27-.321 4.689-.955 1.429-.637 2.575-1.546 3.41-2.697.838-1.163 1.265-2.51 1.265-4.002 0-1.687-.354-3.08-1.053-4.141-.696-1.06-1.696-1.897-2.968-2.487zM151.757 19.777a1.969 1.969 0 0 0-1.47-.616h-6.524c-.577 0-1.076.199-1.482.59-.41.394-.617.9-.617 1.508 0 .582.207 1.077.617 1.47.406.39.905.59 1.482.59h4.165v5.368c-.605.271-1.323.497-2.139.67-.9.191-1.768.29-2.582.29-1.714 0-3.298-.427-4.71-1.271a9.337 9.337 0 0 1-3.37-3.441c-.82-1.438-1.237-3.05-1.237-4.788 0-1.737.416-3.356 1.237-4.809a9.173 9.173 0 0 1 3.368-3.439c1.414-.83 2.998-1.251 4.712-1.251 1.594 0 3.19.36 4.74 1.073.319.197.694.298 1.116.298.56 0 1.043-.214 1.438-.64.389-.417.586-.92.586-1.496 0-.353-.089-.683-.267-.979a2.167 2.167 0 0 0-.778-.74c-.94-.557-2.01-.98-3.184-1.259a15.982 15.982 0 0 0-3.651-.415c-2.516 0-4.858.612-6.96 1.82a13.451 13.451 0 0 0-4.99 4.951c-1.21 2.077-1.822 4.395-1.822 6.886 0 2.49.612 4.809 1.821 6.886a13.451 13.451 0 0 0 4.99 4.95c2.103 1.209 4.445 1.822 6.96 1.822 1.458 0 2.898-.211 4.28-.625a14.722 14.722 0 0 0 3.821-1.758c.691-.43 1.04-1.045 1.04-1.827V21.26c0-.577-.199-1.076-.59-1.482z"/>
        <g>
            <ellipse cx="20.441" cy="11.51" rx="3.053" ry="3.052"/>
            <ellipse cx="11.51" cy="17.994" rx="3.053" ry="3.052"/>
            <ellipse cx="29.373" cy="17.994" rx="3.053" ry="3.052"/>
            <ellipse cx="14.922" cy="28.49" rx="3.053" ry="3.052"/>
            <ellipse cx="25.96" cy="28.49" rx="3.053" ry="3.052"/>
            <path d="M22.088 28.49c0-1.033.403-2.006 1.134-2.736a3.848 3.848 0 0 1 2.736-1.133c.97 0 1.884.353 2.595.999a9.319 9.319 0 0 0 1.227-3.777c-.135.013-.273.02-.41.02a3.848 3.848 0 0 1-2.736-1.133 3.845 3.845 0 0 1-1.134-2.736c0-1.033.404-2.005 1.134-2.736.244-.244.515-.45.804-.618a9.41 9.41 0 0 0-3.208-2.333 3.85 3.85 0 0 1-1.052 1.94 3.848 3.848 0 0 1-2.737 1.134 3.848 3.848 0 0 1-2.737-1.133c-.54-.54-.9-1.211-1.052-1.941a9.41 9.41 0 0 0-3.208 2.333c.29.168.56.374.804.618a3.845 3.845 0 0 1 1.134 2.736 3.845 3.845 0 0 1-1.134 2.736 3.848 3.848 0 0 1-3.145 1.113 9.338 9.338 0 0 0 1.226 3.777c.714-.646 1.628-1 2.595-1 1.033 0 2.006.404 2.737 1.134a3.845 3.845 0 0 1 1.134 2.736c0 .554-.116 1.09-.335 1.58a9.521 9.521 0 0 0 3.967 0 3.797 3.797 0 0 1-.34-1.58z" opacity=".4"/>
            <path fill-rule="nonzero" d="M39.978 13.516a11.466 11.466 0 0 0-2.467-3.658 11.47 11.47 0 0 0-6.579-3.266 11.485 11.485 0 0 0-2.269-3.218 11.47 11.47 0 0 0-8.139-3.37 11.47 11.47 0 0 0-8.139 3.37 11.472 11.472 0 0 0-2.257 3.196A11.46 11.46 0 0 0 3.37 9.859 11.466 11.466 0 0 0 0 17.993a11.466 11.466 0 0 0 3.37 8.136c.073.072.15.146.24.231a11.569 11.569 0 0 0 .707 6.608c.58 1.37 1.41 2.601 2.466 3.657a11.47 11.47 0 0 0 8.14 3.37 11.445 11.445 0 0 0 5.516-1.406 11.445 11.445 0 0 0 5.517 1.406 11.47 11.47 0 0 0 8.139-3.37 11.466 11.466 0 0 0 3.371-8.136c0-.717-.066-1.432-.197-2.129.09-.083.165-.157.239-.23a11.466 11.466 0 0 0 3.37-8.137c.004-1.553-.3-3.06-.9-4.478zm-.873 8.588a10.538 10.538 0 0 1-2.088 3.177 11.466 11.466 0 0 0-4.028-5.902 3.773 3.773 0 0 1-.453.848 10.508 10.508 0 0 1 3.698 5.798 10.518 10.518 0 0 1-6.403 2.52c-.004.325-.05.645-.13.954a11.46 11.46 0 0 0 6.732-2.411c.06.464.092.935.092 1.406a10.517 10.517 0 0 1-3.092 7.466 10.512 10.512 0 0 1-7.469 3.092 10.532 10.532 0 0 1-4.57-1.037c.597-.407 1.16-.872 1.672-1.385a11.466 11.466 0 0 0 2.705-4.27 3.875 3.875 0 0 1-.948-.165 10.54 10.54 0 0 1-2.426 3.767c-.591.59-1.246 1.107-1.952 1.54-.704-.431-1.36-.95-1.951-1.54a10.508 10.508 0 0 1-2.427-3.767c-.305.093-.623.15-.948.165a11.466 11.466 0 0 0 2.705 4.27c.514.515 1.077.978 1.673 1.385a10.499 10.499 0 0 1-4.57 1.037 10.543 10.543 0 0 1-7.472-3.096A10.508 10.508 0 0 1 4.36 28.49c0-.471.03-.942.093-1.406a11.473 11.473 0 0 0 6.732 2.41 3.89 3.89 0 0 1-.13-.953 10.483 10.483 0 0 1-3.654-.82 10.55 10.55 0 0 1-2.75-1.7 10.508 10.508 0 0 1 3.698-5.798 3.85 3.85 0 0 1-.454-.847 11.466 11.466 0 0 0-4.028 5.902A10.468 10.468 0 0 1 1.782 22.1a10.49 10.49 0 0 1-.829-4.11 10.524 10.524 0 0 1 3.093-7.466 10.512 10.512 0 0 1 5.659-2.938 11.43 11.43 0 0 0-.685 3.922c0 1.09.151 2.165.45 3.198a3.91 3.91 0 0 1 .87-.403 10.561 10.561 0 0 1-.372-2.795c0-1.404.27-2.766.804-4.05a10.526 10.526 0 0 1 6.575 1.728c.11-.145.232-.283.362-.416.099-.098.2-.191.309-.276a11.445 11.445 0 0 0-6.783-2.006 10.5 10.5 0 0 1 1.826-2.446A10.512 10.512 0 0 1 20.524.95a10.532 10.532 0 0 1 7.47 3.092c.73.73 1.343 1.553 1.83 2.452a11.445 11.445 0 0 0-6.952 2 3.956 3.956 0 0 1 .67.693 10.499 10.499 0 0 1 6.747-1.714 10.5 10.5 0 0 1 .799 4.035c0 .969-.131 1.926-.388 2.846.302.11.59.26.857.443.316-1.06.477-2.167.477-3.289 0-1.338-.227-2.645-.674-3.89a10.512 10.512 0 0 1 5.481 2.906 10.508 10.508 0 0 1 3.093 7.467c0 1.428-.278 2.811-.829 4.113z" opacity=".4"/>
        </g>
    </g>
</svg>
